<svg xmlns="http://www.w3.org/2000/svg" viewBox="0 0 1763.08889 221"><defs><style>.cls-1{isolation:isolate;}.cls-2{fill:#242528;}.cls-3,.cls-8{fill:#96beff;}.cls-4{fill:#c6c6c6;}.cls-10,.cls-5{fill:#f5f5f5;}.cls-6{fill:#2663fc;}.cls-7{font-size:49.67825px;fill:#2d2d2d;}.cls-7,.cls-8{font-family:ErasITC-Medium, Eras Medium ITC;font-weight:500;}.cls-8{font-size:20.17517px;letter-spacing:0.19502em;}.cls-9{fill:none;}.cls-10{mix-blend-mode:multiply;}</style></defs><g class="cls-1"><g id="图层_1" data-name="图层 1"><rect class="cls-2" width="1763.08889" height="221"/><path class="cls-3" d="M86.89315,544.85684H222.321v5.51957H86.89315a15.09987,15.09987,0,0,1-15.05363-15.05363V529.802A15.09864,15.09864,0,0,0,86.89315,544.85684Z" transform="translate(-48.91111 -362)"/><path class="cls-4" d="M658.94637,544.85684A15.09747,15.09747,0,0,0,674,529.802v5.52079a15.0987,15.0987,0,0,1-15.05363,15.05363H222.321v-5.51957Z" transform="translate(-48.91111 -362)"/><path class="cls-5" d="M658.94637,399.83511H222.321v-5.51848H658.94637A15.09723,15.09723,0,0,1,674,409.37038v5.51836A15.09791,15.09791,0,0,0,658.94637,399.83511Z" transform="translate(-48.91111 -362)"/><path class="cls-6" d="M86.89315,394.31663H222.321V544.85684H86.89315A15.09864,15.09864,0,0,1,71.83952,529.802V409.37038A15.0984,15.0984,0,0,1,86.89315,394.31663Z" transform="translate(-48.91111 -362)"/><path class="cls-5" d="M658.94637,544.85684H222.321V399.83511H658.94637A15.09791,15.09791,0,0,1,674,414.88874V529.802A15.09747,15.09747,0,0,1,658.94637,544.85684Z" transform="translate(-48.91111 -362)"/><text class="cls-7" transform="translate(250.31155 114.2207)">DOWNLOAD</text><text class="cls-8" transform="translate(265.78322 138.66602)">High-speed download</text><polygon class="cls-9" points="93.588 89.854 139.028 89.854 116.52 110.437 93.588 89.854"/><rect class="cls-10" x="173.40988" y="32.31663" width="2.63479" height="156.05978"/><path class="cls-5" d="M168.15872,451.14511H152.34835V430.0692H141.81458v21.07591H126.0041l21.07518,21.07579Zm-63.2298,21.07579v21.07579l42.15036,15.80636,42.15231-15.80636V472.2209l-22.9894-8.6238-5.91134,5.90722,21.41416,7.98614-34.66573,12.925-34.66451-12.925,21.41368-7.98614-5.90491-5.90722Zm22.99462-8.6238" transform="translate(-48.91111 -362)"/></g></g></svg>